<svg xmlns="http://www.w3.org/2000/svg" width="17.519" height="22.14" viewBox="0 0 17.519 22.14">
  <path id="bell" d="M70.591,17.619A3.44,3.44,0,0,1,69.546,16.2a16.471,16.471,0,0,1-1.09-6.508c0-.008,0-.017,0-.025a6.282,6.282,0,0,0-3.7-5.7v-1.5A2.467,2.467,0,0,0,62.3,0h-.2a2.467,2.467,0,0,0-2.462,2.466v1.5a6.282,6.282,0,0,0-3.7,5.722,16.471,16.471,0,0,1-1.09,6.508A3.44,3.44,0,0,1,53.8,17.619a.631.631,0,0,0-.346.717.66.66,0,0,0,.65.507h4.754a3.34,3.34,0,0,0,6.679,0h4.754a.66.66,0,0,0,.65-.507A.631.631,0,0,0,70.591,17.619ZM60.927,2.466A1.167,1.167,0,0,1,62.092,1.3h.2a1.167,1.167,0,0,1,1.165,1.167V3.544a6.282,6.282,0,0,0-2.534,0V2.466Zm1.267,18.374a2.047,2.047,0,0,1-2.042-2h4.084A2.047,2.047,0,0,1,62.194,20.841Zm2.612-3.3H55.578a6.8,6.8,0,0,0,.34-.6,16.422,16.422,0,0,0,1.31-7.26,4.965,4.965,0,1,1,9.93,0c0,.008,0,.016,0,.024a16.389,16.389,0,0,0,1.31,7.234,6.8,6.8,0,0,0,.34.6Z" transform="translate(-53.434 0)" fill="#202842"/>
</svg>
